<svg xmlns="http://www.w3.org/2000/svg" viewBox="0 0 64 64">
  <title>Dogpile</title>
  <defs>
    <linearGradient id="backdrop" x1="8" y1="6" x2="58" y2="60" gradientUnits="userSpaceOnUse">
      <stop offset="0" stop-color="#14212a" />
      <stop offset="0.56" stop-color="#090b10" />
      <stop offset="1" stop-color="#05070b" />
    </linearGradient>
    <linearGradient id="paw" x1="19" y1="16" x2="48" y2="52" gradientUnits="userSpaceOnUse">
      <stop offset="0" stop-color="#97fff0" />
      <stop offset="0.64" stop-color="#18dac8" />
      <stop offset="1" stop-color="#d9a7ff" />
    </linearGradient>
  </defs>

  <rect width="64" height="64" rx="14" fill="url(#backdrop)" />
  <path
    d="M8 22c0-7.7 6.3-14 14-14h20c7.7 0 14 6.3 14 14v20c0 7.7-6.3 14-14 14H22C14.3 56 8 49.7 8 42V22Z"
    fill="none"
    stroke="#58e0c5"
    stroke-opacity="0.45"
    stroke-width="2"
  />
  <path d="M18 45h28" stroke="#d9a7ff" stroke-linecap="round" stroke-opacity="0.42" stroke-width="3" />
  <path d="M16 50h32" stroke="#58e0c5" stroke-linecap="round" stroke-opacity="0.28" stroke-width="3" />

  <g opacity="0.26">
    <ellipse cx="20.5" cy="27.8" fill="#58e0c5" rx="6.1" ry="7.7" transform="rotate(-18 20.5 27.8)" />
    <ellipse cx="30" cy="19.4" fill="#58e0c5" rx="6.3" ry="8.2" transform="rotate(-6 30 19.4)" />
    <ellipse cx="40" cy="19.4" fill="#58e0c5" rx="6.3" ry="8.2" transform="rotate(6 40 19.4)" />
    <ellipse cx="49.5" cy="27.8" fill="#58e0c5" rx="6.1" ry="7.7" transform="rotate(18 49.5 27.8)" />
    <path
      d="M19.4 43.2c0-4.9 3.8-8.2 7-11.8 2.4-2.7 4.4-6.1 8.6-6.1s6.2 3.4 8.6 6.1c3.2 3.6 7 6.9 7 11.8 0 6.5-5.5 10.4-12.1 8.7-2.3-.6-4.7-.6-7 0-6.6 1.7-12.1-2.2-12.1-8.7Z"
      fill="#58e0c5"
    />
  </g>

  <g>
    <ellipse cx="20.5" cy="27.8" fill="url(#paw)" rx="5.2" ry="6.8" transform="rotate(-18 20.5 27.8)" />
    <ellipse cx="30" cy="19.4" fill="url(#paw)" rx="5.4" ry="7.3" transform="rotate(-6 30 19.4)" />
    <ellipse cx="40" cy="19.4" fill="url(#paw)" rx="5.4" ry="7.3" transform="rotate(6 40 19.4)" />
    <ellipse cx="49.5" cy="27.8" fill="url(#paw)" rx="5.2" ry="6.8" transform="rotate(18 49.5 27.8)" />
    <path
      d="M20.9 43.2c0-4.3 3.4-7.4 6.4-10.7 2.2-2.5 3.9-5.7 7.7-5.7 3.8 0 5.5 3.2 7.7 5.7 3 3.3 6.4 6.4 6.4 10.7 0 5.4-4.6 9.2-10.2 7.7-2.6-.7-5.2-.7-7.8 0-5.6 1.5-10.2-2.3-10.2-7.7Z"
      fill="url(#paw)"
    />
    <path d="m29.3 41.8 4.3 4.1 9.3-10.4" fill="none" stroke="#06110f" stroke-linecap="round" stroke-linejoin="round" stroke-width="4.4" />
  </g>
</svg>
